<?xml version="1.0" encoding="UTF-8" standalone="no"?>
<svg
   xmlns:dc="http://purl.org/dc/elements/1.1/"
   xmlns:cc="http://creativecommons.org/ns#"
   xmlns:rdf="http://www.w3.org/1999/02/22-rdf-syntax-ns#"
   xmlns:svg="http://www.w3.org/2000/svg"
   xmlns="http://www.w3.org/2000/svg"
   viewBox="0 0 108.66667 108.66667"
   height="108.66667"
   width="108.66667"
   xml:space="preserve"
   id="svg2"
   version="1.1"><metadata
     id="metadata8"><rdf:RDF><cc:Work
         rdf:about=""><dc:format>image/svg+xml</dc:format><dc:type
           rdf:resource="http://purl.org/dc/dcmitype/StillImage" /></cc:Work></rdf:RDF></metadata><defs
     id="defs6"><clipPath
       id="clipPath20"
       clipPathUnits="userSpaceOnUse"><path
         id="path18"
         d="M 0,0.0195312 H 814.996 V 814.99953 H 0 Z" /></clipPath></defs><g
     transform="matrix(1.3333333,0,0,-1.3333333,0,108.66667)"
     id="g10"><g
       transform="scale(0.1)"
       id="g12"><g
         id="g14"><g
           clip-path="url(#clipPath20)"
           id="g16"><path
             id="path22"
             style="fill:none;stroke:#231f20;stroke-width:13.22000027;stroke-linecap:butt;stroke-linejoin:miter;stroke-miterlimit:4;stroke-dasharray:none;stroke-opacity:1"
             d="M 689.02,125.977 H 125.953 V 689.059 H 689.02 Z M 407.496,9.35547 206.637,210.234 9.35156,407.52 407.496,805.656 805.641,407.52 Z M 9.70312,407.52 H 805.289 M 606.07,606.09 688.785,688.785 M 126.227,126.23 l 82.402,82.422 m -0.723,398.453 -81.679,81.68 M 688.785,126.23 606.227,208.789 m -1.446,200.137 V 209.512 H 209.156 v 98.105 m 297.52,100.254 H 209.156 V 605.152 H 604.781 V 509.18 M 407.516,605.699 V 210.586" /></g></g></g></g></svg>